<svg width="140" height="56" viewBox="0 0 140 56" fill="none" xmlns="http://www.w3.org/2000/svg">
<path d="M45.5922 28.0314C45.6745 27.702 45.8667 27.5647 46.1412 27.4275C46.3333 27.3176 46.5529 27.1255 46.6353 26.9333C46.8549 26.4392 47.0471 25.8902 47.2118 25.3686C47.2667 25.2039 47.2667 25.0118 47.2392 24.8471C47.2392 24.6549 47.1294 24.5725 46.9373 24.6549C46.6353 24.7922 46.3059 24.8745 46.0039 25.0118C44.5765 25.6706 43.2588 26.4941 42.2431 27.7569C40.5961 29.8157 38.6471 31.4078 36.2039 32.2863C36.0941 32.3412 35.9569 32.451 35.902 32.5882C35.4353 33.2745 34.9686 33.9882 34.502 34.702C34.4196 34.8392 34.3373 34.9765 34.2824 35.1412C33.9529 35.9647 33.6235 36.8157 33.2667 37.6392C33.1843 37.8314 32.9922 37.9961 32.8275 38.1059C31.098 39.1765 29.5059 40.4941 28.0784 41.9765C27.9961 42.0588 27.9137 42.1961 27.8588 42.3059C27.6118 42.8549 27.3647 43.3765 27.1726 43.9529C27.0078 44.4196 26.8431 44.9137 26.8431 45.4078C26.8157 45.9294 26.6235 46.3137 26.3216 46.6431C25.9922 47 25.6627 47.3294 25.3608 47.7137C25.251 47.851 25.1686 48.0157 25.1412 48.1804C25.0588 48.8118 24.7569 49.3059 24.2627 49.6353C23.9882 49.8274 23.7137 49.9922 23.4118 50.1569C22.9176 50.4314 22.7804 50.4039 22.451 49.9373C22.3412 49.8 22.2588 49.6078 22.2314 49.4431C22.0941 48.7843 22.2314 48.1804 22.5608 47.6039C22.8627 47.1098 23.2745 46.9176 23.8235 47C24.1255 47.0549 24.3451 46.8902 24.4 46.5608C24.4275 46.3137 24.4 46.0667 24.4275 45.8471C24.4549 45.6549 24.5098 45.4627 24.6196 45.3255C24.949 44.9412 25.3059 44.6118 25.6353 44.2549C26.2118 43.6235 26.4863 42.8824 26.5137 42.0314C26.5137 41.4824 26.4863 40.9333 26.5137 40.4118C26.6235 39.2588 26.7882 39.0941 27.8588 38.8196C27.9961 38.7922 28.1059 38.7647 28.2157 38.7098C28.3255 38.6549 28.4353 38.6 28.4902 38.5176C28.8471 37.8863 29.2039 37.2549 29.5608 36.651C29.5882 36.5961 29.6157 36.5137 29.6157 36.4314C29.6706 35.8549 29.7255 35.251 29.7529 34.6745C29.7255 34.6471 29.698 34.6471 29.6706 34.6196C29.4784 34.7843 29.2314 34.8941 29.0667 35.0863C28.8196 35.3608 28.6 35.6902 28.3804 36.0196C27.9686 36.6235 27.6118 37.2275 27.0078 37.6392C26.4314 38.051 25.8824 38.5177 25.3059 38.9569C25.0314 39.1765 24.8667 39.4235 24.7843 39.7529C24.6196 40.302 24.4275 40.851 23.9608 41.1804C23.5216 41.5098 23.2471 41.9216 23.0824 42.4431C22.8353 43.2667 22.6157 44.0902 22.3686 44.9137C22.2588 45.3255 22.1765 45.7647 22.0118 46.149C21.9294 46.3686 21.7098 46.5059 21.5451 46.6706C21.3529 46.8627 21.0784 46.9725 20.9412 47.1922C20.6941 47.6039 20.502 48.0706 20.2824 48.5373C20.2275 48.6196 20.2275 48.7569 20.1726 48.8118C19.7608 49.3059 19.349 49.8 18.9098 50.2667C18.5255 50.6784 18.1412 50.6235 17.8392 50.1294C17.5373 49.6627 17.4275 49.1412 17.4275 48.5922C17.4275 48.0157 17.6471 47.549 18.0039 47.1373C18.3333 46.7804 18.7451 46.6706 19.2118 46.7529C19.3216 46.7804 19.4588 46.6706 19.5412 46.5882C19.651 46.4784 19.7333 46.3412 19.8431 46.2314C20.0627 46.0118 20.2549 45.7922 20.1451 45.4078C20.0902 45.2157 20.2275 44.9137 20.3373 44.7216C20.502 44.4745 20.7216 44.2824 20.9137 44.0627C20.9686 44.0078 21.0784 43.9529 21.1059 43.8706C21.4078 43.0745 21.8196 42.3059 22.0118 41.4824C22.2314 40.6039 22.2314 39.6706 22.3412 38.7373C22.3412 38.6549 22.3961 38.5451 22.451 38.5176C23.1647 38.1608 23.6588 37.5569 24.1255 36.9529C24.2078 36.8431 24.2627 36.6784 24.2353 36.5686C24.1804 35.8 24.098 35.0039 24.0431 34.2353C23.9608 32.7529 23.9333 31.2431 24.1804 29.7608C24.2078 29.5961 24.2353 29.4314 24.2902 29.2392C23.9059 29.3216 23.6863 29.5686 23.6314 29.898C23.5765 30.2824 23.5765 30.6667 23.5765 31.051C23.6039 32.2588 23.6863 33.4941 23.6314 34.702C23.6039 35.7726 23.3294 36.7882 22.7255 37.6667C22.5059 37.9961 22.2039 38.2431 21.9569 38.5451C21.9294 38.5177 21.902 38.4902 21.902 38.4902C22.1765 37.5843 22.5059 36.6784 22.5333 35.6902C22.1765 36.5961 21.6824 37.3647 20.8588 37.8863C20.0627 38.4078 19.2118 38.6 18.2784 38.6549C19.2392 38.1059 20.2 37.5569 20.7216 36.4314C20.6667 36.4588 20.6392 36.4588 20.6118 36.4863C19.7333 37.0353 18.8824 37.6392 17.9765 38.1608C17.0157 38.7098 16.0549 39.2863 15.3412 40.1647C15.2863 40.2196 15.2314 40.2471 15.1216 40.3294C15.2863 39.5059 15.6157 38.8471 16.1647 38.3255C15.5059 38.7098 14.8745 39.149 14.2431 39.5333C12.7333 40.4118 11.1412 40.851 9.41176 40.4667C9.30196 40.4392 9.19216 40.4118 9 40.3569C10.0157 40.0275 11.0039 39.8353 11.8 39.149C10.949 39.3686 10.1255 39.3686 9.38431 38.902C9.76863 38.8745 10.2078 38.902 10.6196 38.7922C11.3608 38.6275 11.8 38.0235 12.1569 37.3647C13.0627 35.7176 14.3529 34.5647 16.0275 33.8784C16.2196 33.7961 16.4118 33.7137 16.6039 33.6314C15.2314 33.7686 13.9686 34.2627 12.8157 35.1137C13.502 34.0431 14.5725 33.5765 15.6431 33.0824C15.0667 33.0275 14.4902 32.9726 13.9137 32.9177C13.9412 32.8078 13.9686 32.8078 13.9961 32.7804C15.2863 32.3961 16.4118 31.6549 17.4 30.7216C18.5529 29.651 19.4863 28.3608 20.4745 27.1255C21.2706 26.1098 22.3137 25.5882 23.549 25.3961C24.4549 25.2588 25.3059 25.3961 26.1294 25.698C26.4863 25.3137 26.8157 24.9294 27.1726 24.5726C27.8314 23.9137 28.6549 23.5843 29.4784 23.2549C31.4 22.4863 32.8824 21.1686 34.1451 19.4941C34.7765 18.6706 35.1608 17.7373 35.2157 16.6667C35.2431 16.2549 35.3255 15.8706 35.3804 15.4588C35.3804 15.4039 35.3804 15.3216 35.4078 15.2667C35.1882 15.4314 34.9961 15.5686 34.7765 15.7059C34.749 15.6784 34.749 15.6784 34.7216 15.651C34.8039 15.4588 34.8863 15.2392 34.9961 14.9922C34.3373 15.349 34.1176 15.4039 33.7882 15.2392C33.8706 15.1843 33.9255 15.1294 34.0078 15.102C34.5569 14.9647 34.7216 14.5255 34.7216 13.9765C34.7216 13.8118 34.6941 13.6196 34.6941 13.4549C34.7216 13.098 34.749 12.7137 34.7765 12.3569C34.5294 12.4118 34.2275 12.6039 34.0078 12.2745C34.3373 12 34.6667 11.7804 34.9961 11.5059C34.5294 11.0667 33.8706 11.5059 33.4314 11.1765C33.9255 10.9843 34.4196 10.7922 34.9137 10.5725C35.298 10.4078 35.6549 10.3255 36.0667 10.3804C36.451 10.4353 36.8627 10.4902 37.2471 10.5176C37.4941 10.5176 37.7686 10.4353 38.0157 10.4078C38.0157 10.3529 38.0157 10.298 38.0157 10.2706C37.7412 10.2157 37.4392 10.1608 37.0824 10.0784C37.3569 9.96863 37.5765 9.85882 37.851 9.74902C37.5765 9.58431 37.3294 9.44706 37.0824 9.3098C37.302 9.2549 37.4667 9.22745 37.6588 9.22745C37.8235 9.22745 38.0157 9.22745 38.1804 9.2C37.1373 8.67843 36.8902 8.48627 36.7804 8.18431C37.4392 8.51373 38.1529 8.34902 38.8941 8.37647C38.3451 7.9098 38.3451 7.9098 38.3451 7.71765C39.0039 8.23922 39.7726 7.9098 40.5412 8.10196C40.0471 7.44314 39.9098 6.94902 40.102 6.53726C40.2667 6.94902 40.4314 7.38824 40.9529 7.47059C40.9804 7.14118 40.8157 6.81176 41.0902 6.53726C41.1176 6.67451 41.1451 6.78431 41.1726 6.86667C42.051 6.4 42.9843 6.07059 43.9451 5.87843C44.6588 5.74118 45.3726 5.68627 46.1137 5.60392C47.1294 5.49412 48.1176 5.46667 49.1059 5.76863C49.3804 5.85098 49.5177 5.76863 49.6549 5.54902C49.7922 5.35686 49.9569 5.19216 50.1216 5C50.149 5.02745 50.2039 5.02745 50.2314 5.0549C50.3137 5.27451 50.3961 5.52157 50.4784 5.74118C50.5608 5.98823 50.6157 6.23529 50.698 6.5098C51.2745 6.4549 51.7137 6.67451 52.098 7.14118C52.5647 6.48235 53.0039 5.87843 53.4706 5.21961C53.6902 5.79608 53.7451 6.3451 53.7176 6.92157C53.6902 7.47059 53.6078 8.01961 53.2235 8.45882C53.251 8.48627 53.2784 8.51373 53.2784 8.54118C53.8274 8.23922 54.3765 7.96471 54.9255 7.66274C54.9255 7.6902 54.9529 7.71765 54.9529 7.7451C54.7882 7.88235 54.5961 8.04706 54.4314 8.18431C54.4588 8.21177 54.4588 8.23922 54.4863 8.23922C54.6235 8.21176 54.7882 8.15686 54.9255 8.12941C54.7608 8.37647 54.6235 8.62353 54.4588 8.84314C54.2941 9.06275 54.102 9.28235 53.9098 9.47451C53.9922 9.50196 54.102 9.50196 54.2118 9.52941C53.8549 9.80392 53.6902 9.85882 53.0039 9.74902C53.1412 10.0235 53.251 10.2431 53.3882 10.4627C53.5529 10.7098 53.7176 10.9294 53.8824 11.1765C53.9373 11.2588 53.9373 11.3961 53.9098 11.4784C53.8275 11.9451 53.6902 12.4118 53.6353 12.8784C53.5529 14.1412 53.7177 15.3765 53.9098 16.6392C53.9373 16.8588 53.9922 17.0235 54.1843 17.1608C54.2667 17.2157 54.3765 17.3804 54.349 17.4627C54.3216 17.8471 54.2941 18.2588 54.1843 18.5882C53.9647 19.1373 53.6078 19.6039 53.0863 19.8235C52.6745 19.9882 52.1804 19.9882 51.7412 19.9608C51.0824 19.9059 50.7529 19.3569 50.8627 18.6706C50.9176 18.4235 50.9177 18.2314 50.6431 18.149C50.5608 18.1216 50.4784 17.9569 50.4784 17.8471C50.4784 17.4627 50.2863 17.1608 50.0667 16.8588C49.8471 16.5569 49.6549 16.2 49.4627 15.8706C49.4353 15.8157 49.3804 15.7608 49.3255 15.7333C48.7216 15.4588 48.3373 14.9647 48.0078 14.3608C47.8706 14.0863 47.7333 13.7843 47.5961 13.4824C47.3216 13.7294 47.349 14.0039 47.4039 14.3059C47.4863 14.8549 47.5961 15.4039 47.6235 15.9804C47.651 16.5294 47.7608 16.9961 48.0627 17.4353C48.4745 18.0118 48.6667 18.6706 48.5843 19.3843C48.5294 19.7961 48.6392 20.098 48.9137 20.3726C49.298 20.7569 49.5725 21.2235 49.7373 21.7451C49.902 22.2941 50.2588 22.651 50.7804 22.8431C51 22.9255 51.2471 23.0078 51.4392 23.1451C51.5765 23.2275 51.6863 23.3922 51.7412 23.5294C51.9333 24.2706 51.7961 24.9569 51.4118 25.5608C50.8078 26.549 50.451 27.6471 50.3686 28.8275C50.3686 28.9922 50.3137 29.1569 50.2863 29.3216C50.2588 29.651 50.0941 29.8157 49.8196 29.9804C49.1059 30.3922 48.5843 30.9686 48.4745 31.8745C48.4471 32.0392 48.4196 32.2314 48.3098 32.3137C47.8157 32.698 47.349 33.0824 46.8 33.3843C46.2784 33.6863 45.7843 33.4392 45.6745 32.8078C45.5373 32.149 45.5922 31.4902 45.8392 30.8588C46.1137 30.1176 47.2941 29.5961 47.898 30.0353C48.0628 29.8157 48.2 29.6235 48.3647 29.3765C48.1451 29.1843 48.1726 29.0196 48.3098 28.8C48.502 28.4157 48.7216 28.1137 49.0784 27.8392C49.8196 27.2627 50.0118 25.8078 49.5177 24.902C49.3255 25.0941 49.1059 25.2314 48.9961 25.451C48.6667 26 48.3647 26.549 48.0353 27.098C47.8157 27.4824 47.7333 27.8667 47.7333 28.3333C47.7059 29.2667 46.9922 30.0353 46.1137 29.9804C45.1804 29.9255 44.2471 30.0353 43.3137 30.1451C43.0667 30.1726 42.7922 30.1176 42.5176 30.0353C42.2706 29.9529 42.1333 29.7333 42.1059 29.4588C42.0784 28.9098 42.9294 27.5098 43.4235 27.3176C43.451 27.3176 43.451 27.3176 43.4784 27.2902C44.0824 27.0431 45.0157 27.4 45.2078 28.3882C45.4 28.3608 45.5373 28.251 45.5922 28.0314ZM41.749 24.5176C42.1059 24.7647 42.4353 25.0118 42.7373 25.2314C42.9843 25.4235 43.2588 25.451 43.5608 25.3137C44.302 24.9843 45.0431 24.6275 45.7843 24.3255C46.251 24.1333 46.7451 24.0235 47.2118 23.8863C47.349 24.2431 47.4863 24.5725 47.5961 24.8745C47.6235 24.9843 47.5961 25.1216 47.5412 25.2314C47.3216 25.7804 47.102 26.302 46.9373 26.9059C47.0471 26.7961 47.1569 26.7137 47.349 26.5765C47.1569 27.2353 46.8274 27.6745 46.2784 27.8941C46.0863 27.9765 45.949 28.0588 45.8667 28.3059C45.7843 28.5804 45.5922 28.8275 45.4549 29.102C45.4549 29.1294 45.4824 29.1569 45.4824 29.1843C45.7569 29.1569 46.0314 29.1569 46.2784 29.0745C46.5529 28.9922 46.7451 28.8 46.7176 28.4431C46.6902 28.1137 46.8274 27.8392 46.9922 27.5647C47.2118 27.1804 47.4039 26.7412 47.5686 26.3294C47.7333 25.9177 47.8706 25.5059 48.0353 25.0667C48.4471 25.451 48.6667 25.0941 48.8863 24.8196C49.051 24.6549 49.2157 24.4902 49.3255 24.2706C49.6275 23.6941 49.0784 22.5412 48.4745 22.3765C48.3922 22.349 48.3098 22.3765 48.2275 22.3765C46.9098 22.651 45.8118 22.1843 44.8784 21.2235C44.6588 21.0039 44.4667 20.7843 44.2196 20.5647C43.698 20.098 43.2314 20.1255 42.7647 20.6471C42.5451 20.8941 42.3255 21.1412 42.0784 21.3882C42.051 21.3608 42.0235 21.3608 42.0235 21.3333C42.1882 21.0863 42.3529 20.8118 42.5725 20.5922C43.0941 20.0431 43.1216 19.3843 43.0392 18.6706C42.9294 17.7647 42.6275 16.9686 41.9137 16.2549C42.1333 16.0902 42.3255 15.898 42.5451 15.8431C43.2039 15.651 43.4784 15.2667 43.5333 14.498C43.5882 13.7294 43.8078 12.9608 44.0549 12.2196C44.3569 11.2863 44.9882 10.6 45.8118 10.1333C45.7843 10.1059 45.7843 10.051 45.7569 10.0235C45.4824 10.1059 45.2078 10.1882 44.851 10.298C44.9882 10.0784 45.098 9.88628 45.2353 9.74902C45.7843 9.22745 46.4431 8.92549 47.2118 8.92549C47.4039 8.92549 47.6235 8.98039 47.7882 9.06275C47.898 9.11765 47.9804 9.28235 48.0353 9.39216C48.1451 9.61176 48.2 9.83137 48.3098 10.0784C47.8706 10.4627 47.7882 11.0118 47.8157 11.6157C47.8431 12.549 47.9804 13.4824 48.3922 14.3333C48.749 15.0745 49.1882 15.2118 49.902 14.8C50.2588 14.6078 50.3961 14.6627 50.4784 15.0745C50.5608 15.5961 50.6431 16.1451 50.7529 16.6667C50.7804 16.6667 50.8078 16.6667 50.8627 16.6941C50.9176 16.502 50.9451 16.2824 51 16.0353C51.0549 16.3373 51.1373 16.5843 51.1647 16.8039C50.9726 16.9412 50.8078 17.0784 50.6157 17.2706C51.549 17.7373 51.4392 18.6706 51.7412 19.4118C52.3451 19.4941 52.7294 19.2471 52.949 18.6431C52.949 18.6157 52.949 18.6157 52.9765 18.5882C53.251 17.9294 53.3882 17.2706 52.8392 16.6667C52.7843 16.5843 52.7569 16.4745 52.702 16.3647C52.8392 16.3647 52.9216 16.3647 53.0863 16.3647C52.5922 15.0471 52.5922 13.5647 51.549 12.4667C51.6314 12.4392 51.7137 12.4118 51.7961 12.3843C51.4667 12.1098 51.4392 11.7529 51.4118 11.3961C51.4118 11.2314 51.4118 11.0392 51.3843 10.8745C51.3569 10.5725 51.1922 10.3529 50.8627 10.2706C51.0824 9.96863 51 9.69412 50.8353 9.39216C50.6431 9.00784 50.5059 8.59608 50.3412 8.18431C50.1765 8.29412 49.9843 8.43137 49.7647 8.59608C49.5726 8.21177 49.4353 7.8549 49.2431 7.49804C48.9686 7.8 48.9961 8.10196 48.9961 8.43137C48.9961 8.59608 49.0235 8.76078 48.9961 8.92549C48.9686 9.06275 48.8863 9.17255 48.8039 9.36471C48.3098 8.23922 49.0235 7.33333 49.0784 6.31765C48.9961 6.4 48.9412 6.42745 48.9412 6.4549C48.8314 6.86667 48.5569 6.92157 48.1726 6.92157C47.5412 6.92157 46.8824 7.08627 46.251 7.16863C46.1412 7.19608 46.0314 7.22353 45.8941 7.25098C45.9216 6.92157 46.1137 6.72941 46.5529 6.61961C46.8549 6.56471 47.1843 6.5098 47.5137 6.42745C47.2941 6.18039 47.0196 6.20784 46.8 6.23529C45.4275 6.37255 44.1647 6.83922 42.9843 7.58039C41.3922 8.62353 40.1294 9.99608 39.1961 11.6706C38.9765 12.0824 38.6745 12.4118 38.2627 12.6039C37.6863 12.851 37.2745 13.2902 36.9726 13.8941C36.3686 15.0471 35.902 16.2275 35.6549 17.5176C35.4627 18.5333 34.8863 19.3569 34.2 20.1255C33.102 21.3333 31.8392 22.2941 30.4667 23.1176C29.698 23.5569 28.8471 23.8314 28.051 24.1882C27.8039 24.298 27.5294 24.4902 27.3647 24.7098C26.2392 26 25.3882 27.4824 24.7843 29.1294C24.4 30.2275 24.4549 31.298 24.8392 32.3686C25.0314 32.9177 25.1412 33.4941 25.251 34.0706C25.2784 34.2627 25.2235 34.4549 25.1961 34.6745C25.1686 34.6745 25.1412 34.6745 25.1137 34.6745C25.0588 34.5647 24.9765 34.4549 24.8941 34.2353C24.8667 34.949 24.8667 35.5529 24.8392 36.2667C25.1137 36.0745 25.3882 35.9647 25.5529 35.8C26.3765 34.949 27.0353 33.9608 27.3098 32.7804C27.4471 32.1216 27.3373 31.3804 27.3098 30.6941C27.2824 29.9804 27.1726 29.2667 27.1451 28.5255C27.1176 28.0039 27.2275 27.4549 27.6392 27.0157C27.7216 27.9765 27.6118 28.9647 28.3255 29.7882C28.3804 29.4863 28.4078 29.2392 28.4627 28.9922C28.5176 28.7176 28.5451 28.4431 28.6 28.1686C28.6824 27.7294 28.6824 27.3451 28.4353 26.9059C27.9412 26 28.4902 24.6824 29.451 24.2706C29.3961 24.4078 29.3686 24.5451 29.3137 24.6549C28.9843 25.7529 29.1765 26.6863 29.9726 27.5098C31.3176 28.9098 33.102 29.2118 34.9412 28.3608C36.2863 27.7569 37.302 26.7686 38.098 25.5059C38.3726 25.0667 38.3176 25.0941 38.0706 24.6549C37.8784 24.298 37.7961 23.8588 37.7686 23.4745C37.7137 22.7882 37.7412 22.0745 37.6863 21.3882C37.6588 20.7843 37.3569 20.3176 36.8627 20.0157C36.3686 19.7137 35.8471 19.4941 35.3255 19.2196C35.5451 18.6706 35.7922 18.0667 36.0118 17.4627C36.0392 17.4627 36.0667 17.4627 36.0941 17.4627C36.4235 18.2863 36.9176 18.9725 37.6588 19.4392C37.7137 19.2471 37.7686 19.1098 37.851 18.8627C38.0431 19.4392 38.2078 19.9059 38.3726 20.3726C38.7569 21.4431 39.1137 22.5137 39.5255 23.5569C39.6902 23.9686 39.9922 24.3804 40.2667 24.7098C40.7059 25.2039 41.2549 25.3961 41.8588 25.2863C41.8588 25.0667 41.8039 24.8196 41.749 24.5176ZM18.6902 30.7216C18.251 31.4902 17.4824 31.5725 16.7961 31.7922C17.8392 31.9843 18.7726 31.7922 19.651 30.9961C19.5412 31.3255 19.4863 31.5725 19.4039 31.7922C19.0471 32.5882 18.4157 33.1373 17.7569 33.6588C17.1529 34.1255 16.549 34.5647 15.9725 35.0588C15.6431 35.3333 15.3961 35.6902 15.0941 36.0196C15.1216 36.0471 15.149 36.0745 15.149 36.102C15.5882 35.8275 16.0275 35.5804 16.4667 35.3059C15.5059 36.0471 15.0667 37.3647 13.8863 37.8863C14.4353 37.8314 14.9294 37.6118 15.3412 37.2824C15.7529 36.9804 16.1373 36.5961 16.549 36.2941C16.9059 36.0196 17.2902 35.8275 17.6471 35.5804C17.6745 35.6078 17.6745 35.6353 17.702 35.6627C17.3451 36.0745 16.9882 36.4863 16.6039 36.9255C17.0431 36.898 17.4824 36.7608 17.8941 36.5686C18.4706 36.2667 18.9098 35.8549 19.2941 35.3333C19.6235 34.8667 19.9529 34.3726 20.2549 33.9059C20.3647 33.7412 20.4745 33.5765 20.6392 33.3569C20.8039 33.9608 20.8039 34.4824 20.5569 34.949C20.3098 35.4157 19.9804 35.8275 19.6784 36.2941C20.1176 36.1294 20.4471 35.8824 20.7216 35.5529C21.0784 35.0863 21.298 34.5647 21.3804 33.9882C21.4902 32.9451 21.5451 31.8745 21.6 30.8314C21.6 30.6392 21.6275 30.4745 21.5726 30.2549C20.9137 30.8588 20.9412 31.7098 20.8039 32.5059C20.3373 31.7647 20.3922 30.3922 20.9412 29.1294C20.4745 29.4588 20.0078 29.7608 19.5412 30.0902C20.8588 27.7843 22.7255 26.3843 25.3333 26.1922C25.1961 25.8627 24.949 25.7804 24.6745 25.7529C24.0431 25.6706 23.4392 25.8078 22.8353 26.0549C21.4902 26.6039 20.502 27.6196 19.5961 28.7726C19.4314 28.9647 19.2941 29.1843 19.1569 29.4039C18.6902 30.0627 18.2235 30.6941 17.5098 31.051C17.5373 31.0784 17.5373 31.1059 17.5647 31.1333C17.9216 30.9961 18.2784 30.8863 18.6902 30.7216ZM38.5647 10.3255C38.1804 10.6824 37.7686 10.9569 37.2471 11.0118C37.0549 11.0392 36.8353 11.0118 36.5608 11.0118C36.698 11.1216 36.8078 11.1765 36.9451 11.2588C36.451 11.3961 36.0118 11.2863 35.5176 11.1216C35.7647 11.5882 36.0667 11.8353 36.5059 12C36.2588 12.2196 35.9843 12.3569 35.9843 12.7412C36.149 12.6314 36.3137 12.5216 36.451 12.4118C36.0941 12.9882 35.7647 13.5647 35.4078 14.1137C35.4353 14.1412 35.4353 14.1686 35.4627 14.1961C35.6275 14.1137 35.7922 14.0314 36.0392 13.9216C35.8745 14.4431 35.7098 14.9098 35.5451 15.3765C35.5726 15.3765 35.5725 15.4039 35.6 15.4039C35.6824 15.2941 35.7922 15.1843 35.8471 15.0471C35.9843 14.7451 36.149 14.4157 36.2588 14.1137C36.5608 13.3176 37.0275 12.6863 37.8235 12.3294C38.1529 12.1922 38.3726 11.9451 38.5647 11.6157C39.0039 10.902 39.4706 10.2431 39.9373 9.55686C39.9922 9.47451 40.0471 9.41961 40.1569 9.2549C39.4706 9.50196 39.0039 9.91373 38.5647 10.3255ZM45.5373 12.2196C45.4549 12.4941 45.4549 12.8235 45.4549 13.1255C45.3451 14.5529 45.2627 16.0078 45.1529 17.4353C45.1255 17.8471 45.4 18.3686 45.8118 18.5333C45.8667 17.1059 45.949 15.651 46.0039 14.2235C46.0039 13.8118 45.9216 13.4 45.8118 12.9882C45.6745 12.4941 45.7843 12.0549 46.1137 11.698C46.251 11.5608 46.3608 11.3961 46.4706 11.2588C45.9216 11.3137 45.6745 11.7255 45.5373 12.2196ZM51.3569 8.32157C51.7137 8.76078 51.7686 9.47451 52.5373 9.44706C52.3726 9.3098 52.2353 9.2 52.098 9.0902C52.4549 9.11765 52.7843 9.2 53.1137 8.92549C52.3451 8.98039 52.0431 8.32157 51.6314 7.82745C51.851 7.9098 52.0431 7.96471 52.3451 8.07451C51.9882 7.63529 51.549 7.44314 51.0824 7.14118C51.2745 7.11373 51.3843 7.11373 51.4941 7.08627C51.3294 6.89412 50.9726 6.78431 50.7529 6.89412C50.7255 6.89412 50.698 6.92157 50.6706 6.94902C50.5608 7.11373 50.5333 7.96471 50.6706 8.15686C50.8627 8.43137 51.0275 8.67843 51.2196 8.95294C51.2471 8.98039 51.2745 8.98039 51.3294 9.06275C51.3569 8.78824 51.3569 8.56863 51.3569 8.32157ZM45.4275 6.01569C44.9059 6.04314 44.4118 6.04314 43.8902 6.12549C43.6706 6.15294 43.4235 6.2902 43.2314 6.42745C42.9569 6.64706 42.6824 6.89412 42.4353 7.14118C42.0235 7.55294 41.5843 7.8549 40.898 7.82745C41.0902 7.93725 41.2 8.01961 41.3373 8.07451C41.2275 8.26667 41.0902 8.45882 40.9804 8.65098C42.298 7.41569 43.8628 6.75686 45.4275 6.01569ZM29.3412 28.8824C29.3137 28.8824 29.2863 28.8824 29.2588 28.8824C29.1765 30.3098 29.1216 31.7098 29.0392 33.1922C29.3961 32.451 29.7255 31.7373 30.0824 30.9961C29.5333 30.4196 29.4784 29.6235 29.3412 28.8824ZM31.1804 37.3098C30.851 37.5569 30.5216 37.8588 30.3843 38.298C31.2627 38.298 32.8275 36.8157 32.8549 36.0196C32.3059 36.4314 31.7294 36.8706 31.1804 37.3098ZM23.302 38.7373C23.0824 38.8745 22.8902 39.0118 22.698 39.149C22.6431 39.1765 22.5882 39.2588 22.5882 39.3137C22.4784 39.8353 22.4235 40.3569 22.5608 40.9059C22.698 40.1647 23.4667 39.6431 23.302 38.7373ZM46.3333 10.5176C46.7451 10.5176 47.1569 10.5176 47.5412 10.5451C47.6235 10.3804 47.7059 10.1882 47.7882 9.96863C47.2667 10.0235 46.7451 10.1059 46.3333 10.5176ZM27.0902 40.3569C27.3922 39.9176 27.9137 39.7529 28.1059 39.2039C27.3373 39.2588 27.1451 39.5333 27.0902 40.3569ZM52.6745 11.8902C52.949 11.3686 52.8392 10.9294 52.2627 10.4078C52.4 10.8745 52.5098 11.3686 52.6745 11.8902ZM50.4235 24.6549L50.0118 23.3647C49.8471 23.8314 50.0118 24.4078 50.4235 24.6549ZM52.8118 6.42745C52.7843 6.42745 52.7843 6.4 52.7569 6.4C52.6196 6.56471 52.4824 6.70196 52.3451 6.86667C52.1255 7.16863 52.1529 7.22353 52.5098 7.44314C52.6196 7.11373 52.7294 6.78431 52.8118 6.42745Z" fill="#1a1a1a"/>
<path d="M41.1445 13.62C41.5288 14.169 41.9132 14.6905 42.2975 15.2121C43.121 14.7454 43.5602 13.62 43.3681 12.4121C42.7641 13.0984 41.9406 13.318 41.1445 13.62Z" fill="#1a1a1a"/>
<path d="M49.6275 11.1206C49.106 12.4383 49.6001 14.4422 50.506 14.6618C50.204 13.8108 49.9295 12.9873 49.6275 12.1638C49.655 12.1363 49.6824 12.1363 49.7099 12.1089C49.7922 12.1363 49.8471 12.1912 49.9569 12.2187C49.902 12.0265 49.8471 11.8618 49.8197 11.6971C50.1216 12.1363 50.5609 12.1638 51.055 12.1638C51.0001 11.9441 50.9452 11.7245 50.9177 11.5324C50.9177 11.3402 50.9452 11.1481 50.9726 10.9559C50.7256 10.9559 50.4785 10.9834 50.204 10.9834C49.7648 10.9834 49.6824 10.901 49.6275 10.4343C49.6275 10.3794 49.6001 10.3245 49.5726 10.2422C49.2432 10.5441 49.2707 10.8187 49.6275 11.1206Z" fill="#1a1a1a"/>
<path d="M41.5287 16.8877C41.062 16.1191 40.6503 15.4053 40.2111 14.6642C39.7169 13.8132 39.0856 13.4838 38.3169 13.6485C38.2895 13.6485 38.262 13.6759 38.1797 13.7034C38.9758 13.8406 39.2503 14.4995 39.5797 15.0759C39.8542 15.5426 40.1013 16.0093 40.4307 16.421C40.6777 16.8053 41.062 16.97 41.5287 16.8877Z" fill="#1a1a1a"/>
<path d="M42.8477 21.5257C43.3418 22.5414 43.3143 22.8159 44.5496 22.7336C45.0712 22.7061 45.5653 22.6238 46.0869 22.4865C45.8124 22.4316 45.5653 22.3492 45.2908 22.3218C44.9614 22.2943 44.632 22.2669 44.2751 22.2669C43.8633 22.2394 43.5065 22.1022 43.232 21.7453C43.1496 21.6355 42.9849 21.5532 42.8751 21.4434L42.8477 21.5257Z" fill="#1a1a1a"/>
<path d="M51.7132 18.0396C51.9603 17.7651 52.1799 17.4906 52.3995 17.2161C52.4269 17.1886 52.4544 17.1612 52.4818 17.1337C52.6465 16.8317 52.5093 15.7886 52.2897 15.5416C52.2622 15.4866 52.2073 15.4592 52.0975 15.4043C52.0975 15.6788 52.0701 15.8984 52.0701 16.118C52.0975 16.5023 52.0426 16.8592 51.823 17.1886C51.576 17.4357 51.521 17.7376 51.7132 18.0396Z" fill="#1a1a1a"/>
<path d="M42.3535 23.0636C42.8202 23.3381 43.2594 23.6126 43.6712 23.8597C43.6986 23.8871 43.7535 23.9146 43.781 23.8871C44.4672 23.7773 45.1535 23.695 45.73 23.2008C45.73 23.2008 45.73 23.1734 45.73 23.1185C45.428 23.2008 45.1261 23.2557 44.8241 23.3381C44.7143 23.3656 44.6045 23.4205 44.4947 23.4479C44.0829 23.5577 43.6712 23.5577 43.3417 23.2008C43.2594 23.091 43.1496 23.0361 43.0398 22.9538C42.8202 22.844 42.628 22.8165 42.3535 23.0636Z" fill="#1a1a1a"/>
<path d="M41.1996 21.498C41.1447 22.1843 41.0898 22.9255 41.0898 23.6392C41.0898 23.8039 41.1996 23.9961 41.2546 24.1608C41.282 24.1608 41.3369 24.1608 41.3644 24.1608C41.4742 23.7216 41.6114 23.2549 41.7212 22.8157C41.7212 22.7608 41.7212 22.7059 41.6938 22.6784C41.5016 22.2667 41.3369 21.8549 41.1996 21.498Z" fill="#1a1a1a"/>
<path d="M52.9759 17.7649C52.674 17.5178 52.4818 17.5178 52.2073 17.8198C51.9328 18.0943 51.823 18.5884 52.0426 18.6982C52.2348 18.808 52.5093 18.7531 52.7289 18.6708C52.921 18.6159 52.7838 18.4237 52.7563 18.2865C52.7289 18.2041 52.7563 18.0668 52.8112 17.9845C52.8387 17.9021 52.921 17.8472 52.9759 17.7649Z" fill="#1a1a1a"/>
<path d="M51.3294 14.3885C51.247 13.6473 51 13.1532 50.5059 13.2355C50.8078 13.6473 51.0549 14.0041 51.3294 14.3885Z" fill="#1a1a1a"/>
<path d="M48.2276 24.5185C48.2001 24.3812 48.1178 24.244 48.1452 24.1616C48.2001 23.7773 48.1178 23.4754 47.7884 23.2832C47.6511 23.6675 47.8433 24.2989 48.2276 24.5185Z" fill="#1a1a1a"/>
<path d="M50.149 10.2159C50.149 9.94138 50.396 9.66687 50.149 9.44727C50.1215 9.80413 50.0941 10.1335 50.0392 10.5179C50.2862 10.4081 50.4509 10.3531 50.6431 10.2708C50.698 10.2433 50.7255 10.161 50.7804 10.1061C50.7255 10.0786 50.6431 10.0237 50.5882 10.0237C50.4235 10.0512 50.2862 10.1335 50.149 10.2159Z" fill="#1a1a1a"/>
<path d="M50.2598 10.8742C50.5617 10.8193 50.7813 10.7919 51.0284 10.737C50.8637 10.4625 50.6441 10.4899 50.2598 10.8742Z" fill="#1a1a1a"/>
<path d="M55.7773 22.8429C96.3499 12.439 119.766 10.5449 130.581 24.9292C125.942 14.0311 111.366 1.95272 55.7773 22.8429Z" fill="#1a1a1a"/>
<path d="M55.9961 22.3772C88.0039 9.39287 118.804 3.54581 129.894 22.6517C123.882 6.04385 107.851 -2.2189 55.9961 22.3772Z" fill="#D81921"/>
<path d="M63.4352 35.0589L58.4391 25.9727H55.5567L48.0352 39.6158H50.6979L52.345 36.5687H61.6234L63.2705 39.6158H65.9332L63.4352 35.0589ZM56.9842 27.7021L60.9646 35.0589H53.0312L56.9842 27.7021Z" fill="#1a1a1a"/>
<path d="M95.5523 35.0589L90.5563 25.9727H87.6739L80.1523 39.6158H82.8151L84.4622 36.5687H93.7406L95.3876 39.6158H98.0504L95.5523 35.0589ZM89.1014 27.7021L93.0818 35.0589H85.1484L89.1014 27.7021Z" fill="#1a1a1a"/>
<path d="M79.9897 29.9809C79.9897 27.4554 77.5191 25.8633 74.1152 25.8633H66.6211V27.4005H68.9544H73.8407C76.0642 27.4005 77.6015 28.4711 77.6015 30.0358C77.6015 31.6005 76.0642 32.6986 73.8407 32.6986H66.6211V39.6711H68.9544V34.2084H72.7152L77.4368 39.6711H80.1819L75.1584 34.0162C77.6564 33.8241 79.9897 32.4515 79.9897 29.9809Z" fill="#1a1a1a"/>
<path d="M126.463 32.5886V32.5337C128.385 32.2866 130.142 31.1337 130.142 29.4042C130.142 27.3454 127.891 25.918 124.24 25.918H114.879V32.8356V33.4121V39.6984H124.459C128.302 39.6984 130.553 38.1886 130.553 35.9925C130.581 34.318 128.714 32.8082 126.463 32.5886ZM117.514 27.4552H123.828C126.189 27.4552 127.451 28.4435 127.451 29.6788C127.451 30.9415 126.189 31.8748 123.828 31.8748H117.514V27.4552ZM123.993 38.1337H117.542V33.3846H123.993C126.546 33.3846 127.863 34.5101 127.863 35.7729C127.863 37.2278 126.408 38.1337 123.993 38.1337Z" fill="#1a1a1a"/>
<path d="M109.418 31.875H101.402C101.402 31.875 99.6725 31.5182 99.6176 29.7888C99.5627 27.0162 101.402 27.4554 101.402 27.4554H110.571V25.8633H99.947C99.947 25.8633 97.5039 26.3025 97.5039 29.5417C97.5039 33.3574 99.947 33.3574 99.947 33.3574H107.167C109.445 33.3574 110.625 34.4829 110.625 35.7456C110.625 37.228 109.335 38.1339 107.167 38.1339H98.7392V39.6711H107.606C111.037 39.6711 113.041 38.1613 113.041 35.9652C113.041 32.7535 109.418 31.875 109.418 31.875Z" fill="#1a1a1a"/>
<path d="M85.8347 42.1426H80.1523V46.3426V46.6994V50.5151H85.7798C88.1131 50.5151 89.9249 49.2249 89.9249 46.3426C89.9249 43.8445 88.0582 42.1426 85.8347 42.1426ZM85.4778 49.6092H81.7445V46.7269V45.821V43.1308H85.5876C87.0151 43.1308 88.2778 44.0641 88.2778 46.37C88.2778 48.7034 86.9327 49.6092 85.4778 49.6092Z" fill="#1a1a1a"/>
<path d="M111.116 45.7936H106.23C106.23 45.7936 105.159 45.574 105.159 44.5308C105.132 42.8289 106.23 43.1034 106.23 43.1034H111.802V42.1426H105.351C105.351 42.1426 103.869 42.4171 103.869 44.3936C103.869 46.7269 105.351 46.6994 105.351 46.6994H109.744C111.116 46.6994 111.857 47.3857 111.857 48.1543C111.857 49.0602 111.061 49.6092 109.744 49.6092H104.638V50.5426H110.018C112.104 50.5426 113.312 49.6092 113.312 48.2916C113.312 46.3426 111.116 45.7936 111.116 45.7936Z" fill="#1a1a1a"/>
<path d="M93.3014 42.1426H91.7092V50.5151H93.3014V42.1426Z" fill="#1a1a1a"/>
<path d="M102.086 49.6092H96.6781V46.6994H100.96V45.7936H96.6781V43.1034H102.086V42.1426H95.0859V46.3426V46.6994V50.5426H102.086V49.6092Z" fill="#1a1a1a"/>
<path d="M122.125 49.6092H116.69V46.6994H120.972V45.7936H116.69V43.1034H122.125V42.1426H115.097V46.3426V46.6994V50.5426H122.125V49.6092Z" fill="#1a1a1a"/>
<path d="M130.114 49.6092H125.502V46.6994V45.7936V42.1426H123.91V46.3426V46.6994V50.5426H130.114V49.6092Z" fill="#1a1a1a"/>
</svg>
