<svg width="338" height="152" viewBox="0 0 338 152" fill="none" xmlns="http://www.w3.org/2000/svg">
<path fill-rule="evenodd" clip-rule="evenodd" d="M14.2439 145.133C13.9464 144.726 13.6489 144.317 13.3502 143.909C1.97027 127.057 -1.48566 110.386 0.882885 94.7263L44.171 99.7539C44.7226 110.389 48.6801 121.391 56.2804 131.612C52.1075 132.774 48.1295 133.952 44.2872 135.14C33.6687 138.424 24.0816 141.787 14.2427 145.132L14.2439 145.133Z" fill="#373435"/>
<path fill-rule="evenodd" clip-rule="evenodd" d="M174.463 8.64794C185.297 8.34729 196.389 8.80829 207.553 10.0822C223.836 11.9417 240.273 15.5317 256.294 21.0102C266.234 24.4098 275.015 28.1768 282.479 32.3648C272.814 23.9856 258.965 17.0628 241.823 11.6723C221.786 5.37085 198.211 1.52253 173.775 0.677368L174.462 8.64906L174.463 8.64794Z" fill="#ED3237"/>
<path fill-rule="evenodd" clip-rule="evenodd" d="M115.892 18.5482C131.28 13.4149 148.402 10.1568 166.382 9.0154L165 0.50366C146.43 0.411238 127.55 2.06704 109.511 5.71048C108.763 5.86192 108.013 6.01892 107.264 6.18038L115.892 18.5482Z" fill="#ED3237"/>
<path fill-rule="evenodd" clip-rule="evenodd" d="M67.4667 47.3673C78.3269 36.6152 92.39 27.5422 108.387 21.2586L98.1506 8.41638C78.8296 13.7178 60.0351 22.4478 44.1597 33.6565L67.4667 47.3673Z" fill="#373435"/>
<path fill-rule="evenodd" clip-rule="evenodd" d="M44.3348 92.0039C45.5966 78.2308 52.0241 64.8251 62.1719 53.0397L36.2341 39.6552C20.4511 52.4874 8.45787 67.9508 3.16113 84.8941L44.336 92.0039H44.3348Z" fill="#373435"/>
<path fill-rule="evenodd" clip-rule="evenodd" d="M190.094 66.8639C188.032 67.0844 185.97 67.3071 183.907 67.5264C182.047 67.7246 180.982 67.8271 179.153 68.5943C178.471 68.8816 177.828 69.2179 177.237 69.5954C176.132 70.298 175.791 70.6732 175.028 71.6687C174.234 72.701 173.45 73.7221 172.707 74.6908C171.755 75.9313 172.428 75.0694 171.486 76.2965C171.35 76.4747 171.211 76.6551 171.073 76.8343C169.65 78.381 167.582 79.5914 165.148 80.1838C162.388 80.5914 159.629 80.9978 156.87 81.4053C156.477 81.4632 156.084 81.5211 155.692 81.5791C154.581 81.7427 153.377 82.0735 152.275 81.7717C150.548 81.2996 149.311 79.7384 149.381 77.9345C149.394 77.586 149.456 77.2486 149.559 76.9312C149.85 76.0326 150.908 74.8623 151.483 74.1185C151.78 73.7354 152.076 73.3513 152.374 72.9682C155.499 68.9328 158.626 64.8974 161.751 60.8631C162.41 60.0113 163.052 59.1839 163.716 58.3265C164.05 57.8934 164.386 57.4613 164.722 57.0282C165.78 56.0672 167.098 55.2644 168.6 54.7031C169.314 54.437 170.068 54.2254 170.856 54.0762C171.698 53.917 172.57 53.8146 173.425 53.7099C173.882 53.6531 174.36 53.5952 174.856 53.5362C181.566 52.7333 191.709 51.6632 202.421 50.6878C203.401 50.5987 204.341 50.5241 205.241 50.4851C209.347 50.3025 212.948 51.4717 215.431 53.7411C219.954 57.8789 220.068 63.8329 216.629 68.7391C216.195 69.3593 215.711 69.9996 215.192 70.6699C209.466 78.0614 203.741 85.4541 198.015 92.8468C197.129 93.9903 196.243 95.135 195.356 96.2775C194.834 96.9523 193.883 98.0346 193.448 98.7707C193.273 99.0669 193.161 99.4065 193.133 99.7695C193.103 100.15 193.168 100.517 193.309 100.847C193.576 101.477 194.117 101.978 194.799 102.201C195.594 102.462 196.558 102.216 197.376 102.116C209.015 100.696 220.471 99.5624 231.695 98.7072C232.102 98.6771 232.508 98.6448 232.914 98.6159C234.33 98.5112 235.925 98.5101 237.187 98.941C238.617 99.4299 239.624 100.475 239.465 102.557C239.349 104.098 237.873 105.543 236.956 106.728C236.695 107.065 236.433 107.403 236.173 107.739C235.552 108.541 235.018 109.214 234.459 109.792C233.431 110.858 232.32 111.604 230.433 112.243C229.933 112.412 229.316 112.548 228.64 112.656C226.65 112.976 224.141 113.072 222.535 113.176C208.73 114.077 194.605 115.379 180.265 117.099C179.48 117.193 178.692 117.29 177.906 117.386C175.495 117.682 173.559 118.166 171.179 117.388C170.891 117.293 170.611 117.184 170.337 117.062C167.332 115.716 165.298 112.733 165.428 109.347C165.483 107.905 165.925 106.563 166.654 105.412C175.314 94.2309 182.396 85.0889 191.056 73.908C191.644 73.1497 192.232 72.3903 192.819 71.6309C193.103 71.2634 193.492 70.7156 193.768 70.1777C194.482 68.7858 193.934 67.0343 192.299 66.7247C191.63 66.5989 190.9 66.7748 190.091 66.8617L190.094 66.8639Z" fill="#373435"/>
<path fill-rule="evenodd" clip-rule="evenodd" d="M292.843 73.4627L316.343 43.1215C316.653 42.7217 317.279 41.9534 317.873 41.1439C319.223 39.3021 320.148 37.5472 318.405 35.5239C317.098 34.0084 314.057 33.9427 312.132 33.7957C311.326 33.7345 310.517 33.6755 309.706 33.6187C306.395 33.386 304.868 33.3069 301.749 35.122C299.39 36.496 297.884 39.0304 296.26 41.1272L255.776 93.3935C254.661 94.8322 253.409 96.2274 252.679 97.8955C252.208 98.97 251.928 100.144 251.88 101.38C251.725 105.414 254.099 108.977 257.637 110.656C258.095 110.874 258.573 111.06 259.065 111.21C261.486 111.949 264.796 111.632 267.362 111.625C286.496 111.574 304.71 112.348 321.694 113.888C323.426 114.045 324.666 114.221 326.424 113.932C328.241 113.634 329.881 112.974 331.207 112.053C332.676 111.029 333.579 109.591 334.659 108.196C335.246 107.438 337.415 104.775 337.616 103.87C337.797 103.051 337.692 102.237 337.367 101.522C337.091 100.918 336.658 100.383 336.104 99.9811C334.981 99.1627 331.751 98.9044 330.371 98.7785C329.456 98.6939 328.535 98.6126 327.613 98.5335C313.539 97.3287 298.517 96.7107 282.745 96.7074C281.87 96.7074 279.02 96.9412 278.056 96.3444C277.713 96.1328 277.43 95.8411 277.233 95.5003C277.005 95.1073 276.889 94.6451 276.926 94.1619C277.008 93.1085 278.344 91.7622 278.946 91.0062L288.539 78.9501C289.992 77.1239 291.413 75.3078 292.841 73.4638L292.843 73.4627Z" fill="#373435"/>
<path fill-rule="evenodd" clip-rule="evenodd" d="M263.056 135.364C275.079 136.214 286.548 137.435 297.364 139.004C298.101 139.111 298.838 139.22 299.571 139.331C301.867 139.677 303.787 139.985 306.152 139.658C309.044 139.257 311.52 137.947 313.036 136.113C313.9 134.998 314.764 133.882 315.627 132.768C316.409 131.758 317.963 129.784 318.186 128.694C318.396 127.669 318.235 126.649 317.797 125.795C317.567 125.342 317.257 124.934 316.886 124.597C316.361 124.119 315.61 123.838 314.788 123.667C312.741 123.239 309.487 123.204 307.283 123.052C293.56 122.11 279.123 121.647 264.122 121.688C263.327 121.69 262.526 121.695 261.726 121.699C260.793 121.705 259.855 121.714 258.917 121.723C255.238 121.762 251.479 122.229 248.885 125.087C248.56 125.444 248.25 125.845 247.859 126.349C247.387 126.958 246.915 127.567 246.444 128.177C245.688 129.153 244.692 130.097 244.643 131.385C244.629 131.753 244.685 132.111 244.799 132.44C244.983 132.975 245.322 133.446 245.765 133.8C246.455 134.351 247.991 134.567 249.527 134.657C254.035 134.921 258.518 135.044 263.055 135.364H263.056Z" fill="#373435"/>
<path fill-rule="evenodd" clip-rule="evenodd" d="M205.539 134.103C210.779 133.986 215.957 133.927 221.069 133.93C222.413 133.931 224.384 133.986 225.697 133.873C228.912 133.593 231.69 132.204 233.336 130.209L235.424 127.513C235.813 127.011 236.315 126.485 236.501 125.878C236.556 125.699 236.592 125.511 236.609 125.317C236.666 124.661 236.489 124.035 236.15 123.534C235.897 123.161 235.555 122.855 235.153 122.659C234.414 122.297 233.139 122.47 232.331 122.508C231.853 122.531 231.375 122.554 230.898 122.578C224.399 122.904 217.821 123.319 211.175 123.826C210.143 123.904 209.112 123.928 208.109 124.2C207.171 124.456 206.335 124.877 205.659 125.41C205.003 125.927 204.053 127.264 203.507 127.969L201.893 130.053C201.698 130.409 201.58 130.812 201.565 131.242C201.52 132.392 202.211 133.407 203.232 133.864C204.003 134.211 204.725 134.124 205.539 134.106V134.103Z" fill="#373435"/>
<path fill-rule="evenodd" clip-rule="evenodd" d="M80.8124 147.232C94.9085 144.591 109.477 142.278 124.42 140.343C144.205 137.781 163.607 136.015 182.378 134.994C183.444 134.936 184.487 134.882 185.581 134.827C186.827 134.629 187.952 134.178 188.855 133.546C190.136 132.651 191.332 130.838 192.266 129.632C192.577 129.231 192.968 128.822 193.113 128.334C193.152 128.2 193.179 128.061 193.192 127.916C193.272 127 192.765 126.158 192 125.81C191.405 125.541 190.395 125.691 189.754 125.757C183.103 126.446 176.4 127.225 169.651 128.099C137.603 132.249 107.281 138.129 79.6224 145.279C48.2911 153.373 49.595 153.074 80.8135 147.232H80.8124Z" fill="#373435"/>
<path fill-rule="evenodd" clip-rule="evenodd" d="M71.2923 129.669L126.102 58.7463C126.689 57.9869 127.699 56.9936 127.777 55.9926C127.815 55.4993 127.694 55.0283 127.456 54.6296C127.202 54.2043 126.813 53.8569 126.341 53.6486C126.083 53.535 125.797 53.4604 125.498 53.4382C124.906 53.3947 123.75 53.6854 123.196 53.7956C116.628 55.1051 110.167 56.487 103.825 57.9346C103.607 57.9624 103.383 57.9724 103.155 57.9635C101.409 57.9 99.9668 56.7643 99.4869 55.2398C99.3615 54.8434 99.3023 54.4203 99.3182 53.9827C99.3798 52.3647 100.745 51.0452 101.692 49.8226L106.734 43.3296C107.686 42.1048 108.456 41.1093 109.432 39.8499L109.965 39.1617C110.985 38.1885 112.262 37.3656 113.727 36.7744C115.182 36.1853 117.424 35.8022 119.033 35.4671C126.358 33.9371 133.554 32.5541 140.867 31.2847C147.464 30.1389 156.412 28.7292 159.152 36.7365C160.324 40.1639 159.686 42.6593 158.299 44.9721C157.232 46.7504 155.721 48.4207 154.248 50.3214L98.9136 121.881L96.2248 125.351C95.6469 126.067 94.9903 126.947 94.246 127.921C93.1347 129.374 91.4455 131.437 90.0219 132.523C88.6997 133.534 87.1393 134.119 83.9649 134.977C81.2783 135.703 78.6031 136.404 75.9633 137.136C75.0788 137.381 73.7521 137.862 72.7638 137.826C70.564 137.746 68.844 135.963 68.9272 133.845C68.9682 132.821 69.5359 131.951 70.1719 131.12C70.5423 130.635 70.9196 130.153 71.2923 129.67V129.669Z" fill="#ED3237"/>
</svg>
